<?xml version="1.0" standalone="no"?>
<!DOCTYPE svg PUBLIC "-//W3C//DTD SVG 20010904//EN"
 "http://www.w3.org/TR/2001/REC-SVG-20010904/DTD/svg10.dtd">
<svg version="1.0" xmlns="http://www.w3.org/2000/svg"
 width="669.000000pt" height="669.000000pt" viewBox="0 0 669.000000 669.000000"
 preserveAspectRatio="xMidYMid meet">
<metadata>
Created by potrace 1.14, written by Peter Selinger 2001-2017
</metadata>
<g transform="translate(0.000000,669.000000) scale(0.100000,-0.100000)"
fill="#000000" stroke="none">
<path d="M2 3348 l3 -1913 198 -3 197 -2 0 1205 0 1205 285 0 c222 0 303 4
362 16 211 43 392 184 489 379 53 107 74 197 74 324 0 322 -227 603 -550 681
-79 19 -117 20 -573 20 l-487 0 2 -1912z m873 1563 c121 -18 217 -85 276 -193
33 -60 34 -67 34 -168 0 -91 -3 -112 -25 -155 -30 -62 -91 -129 -147 -162 -78
-46 -130 -53 -380 -53 l-233 0 0 370 0 370 208 0 c114 0 234 -4 267 -9z"/>
<path d="M3318 4618 l-3 -643 -27 -56 c-91 -185 -302 -249 -506 -154 -64 30
-152 111 -188 174 -15 25 -28 48 -30 49 -1 2 -66 -45 -143 -104 l-140 -108 24
-40 c99 -166 254 -285 440 -337 66 -19 105 -23 225 -23 167 0 242 15 353 69
171 84 293 227 358 420 l24 70 3 663 3 662 -195 0 -195 0 -3 -642z"/>
<path d="M4882 4318 l3 -943 395 -3 c432 -4 542 4 675 45 599 187 856 883 520
1409 -110 173 -290 316 -477 380 -148 51 -189 54 -671 54 l-447 0 2 -942z
m851 576 c360 -93 549 -492 393 -829 -64 -137 -176 -243 -325 -307 l-76 -33
-222 -3 -223 -4 0 596 0 596 196 0 c146 0 212 -4 257 -16z"/>
<path d="M1590 3620 l0 -240 245 0 245 0 0 240 0 240 -245 0 -245 0 0 -240z"/>
<path d="M4040 3620 l0 -240 240 0 240 0 0 240 0 240 -240 0 -240 0 0 -240z"/>
<path d="M2037 2636 c-100 -37 -152 -116 -145 -220 7 -112 82 -192 192 -203
62 -6 131 14 161 47 17 19 17 21 1 39 -17 19 -18 19 -53 -5 -26 -17 -49 -24
-85 -24 -94 0 -153 63 -153 161 0 62 17 94 67 132 39 29 114 33 162 8 37 -19
40 -19 52 -3 20 25 18 30 -27 52 -53 27 -124 34 -172 16z"/>
<path d="M4567 2636 c-161 -58 -201 -267 -71 -374 91 -75 210 -69 297 16 116
113 59 321 -99 361 -55 14 -80 13 -127 -3z m160 -74 c86 -61 83 -210 -6 -269
-45 -30 -120 -31 -167 -3 -46 29 -78 98 -71 157 6 52 29 88 78 121 43 30 120
27 166 -6z"/>
<path d="M5663 2641 c-103 -26 -171 -128 -160 -237 11 -107 87 -181 196 -191
52 -5 68 -2 116 21 59 29 64 39 38 68 -16 18 -17 18 -40 -4 -21 -19 -36 -23
-95 -23 -69 0 -70 1 -108 41 -53 57 -62 115 -29 181 13 26 36 56 51 66 40 30
114 33 163 8 34 -18 41 -19 54 -7 19 20 9 40 -32 60 -44 20 -111 28 -154 17z"/>
<path d="M1100 2438 c-51 -112 -95 -206 -97 -210 -2 -5 9 -8 26 -8 26 0 34 7
51 40 l20 40 120 0 120 0 20 -40 c17 -33 25 -40 51 -40 17 0 28 3 26 8 -2 4
-46 98 -97 210 -87 187 -96 202 -120 202 -24 0 -33 -15 -120 -202z m172 12
l46 -100 -98 0 -99 0 47 100 c26 55 49 100 52 100 3 0 26 -45 52 -100z"/>
<path d="M1487 2633 c-4 -3 -7 -98 -7 -210 l0 -203 35 0 35 0 0 50 0 50 69 0
70 0 38 -50 c34 -43 42 -49 76 -50 l38 0 -20 28 c-11 15 -31 40 -44 56 l-24
29 38 38 c41 41 55 87 45 144 -9 47 -59 102 -104 115 -41 11 -235 14 -245 3z
m241 -64 c31 -20 55 -74 47 -109 -4 -16 -20 -41 -37 -55 -26 -22 -39 -25 -109
-25 l-79 0 0 106 0 107 78 -5 c42 -2 87 -11 100 -19z"/>
<path d="M2317 2634 c-4 -4 -7 -99 -7 -211 l0 -203 35 0 35 0 0 95 0 95 110 0
110 0 0 -95 0 -95 30 0 30 0 0 210 0 210 -30 0 -30 0 0 -85 0 -85 -110 0 -109
0 -3 83 c-3 79 -4 82 -28 85 -14 2 -29 0 -33 -4z"/>
<path d="M2750 2430 l0 -210 30 0 30 0 0 210 0 210 -30 0 -30 0 0 -210z"/>
<path d="M2860 2615 c0 -24 2 -25 75 -25 l75 0 0 -185 0 -185 35 0 35 0 0 185
0 185 75 0 c73 0 75 1 75 25 l0 25 -185 0 -185 0 0 -25z"/>
<path d="M3280 2430 l0 -210 165 0 165 0 0 25 0 25 -135 0 -135 0 0 75 0 75
120 0 120 0 0 25 0 25 -120 0 -120 0 0 60 0 60 130 0 130 0 0 25 0 25 -160 0
-160 0 0 -210z"/>
<path d="M3670 2430 l0 -210 30 0 c29 0 30 2 30 41 0 36 7 49 45 90 l45 48 72
-89 c64 -81 75 -90 105 -90 18 0 33 2 33 4 0 3 -38 53 -85 112 -73 92 -83 110
-72 123 7 9 37 45 68 81 90 108 87 100 46 100 -32 0 -43 -9 -144 -125 l-108
-124 -3 124 -3 125 -29 0 -30 0 0 -210z"/>
<path d="M4047 2633 c-4 -3 -7 -15 -7 -25 0 -16 9 -18 80 -18 l80 0 0 -185 0
-185 30 0 30 0 0 185 0 185 75 0 c73 0 75 1 75 25 l0 25 -178 0 c-98 0 -182
-3 -185 -7z"/>
<path d="M4927 2633 c-4 -3 -7 -98 -7 -210 l0 -203 30 0 29 0 3 156 3 157 119
-157 c105 -137 122 -156 147 -156 l29 0 0 210 0 210 -30 0 -30 0 0 -156 0
-157 -117 156 c-98 129 -122 156 -144 156 -14 1 -29 -2 -32 -6z"/>
<path d="M5370 2430 l0 -210 30 0 30 0 0 210 0 210 -30 0 -30 0 0 -210z"/>
<path d="M5930 2430 l0 -210 30 0 c29 0 30 2 30 43 0 35 7 50 43 91 l43 48 69
-90 c66 -86 72 -91 109 -91 l38 -1 -34 43 c-77 95 -138 175 -138 182 0 4 36
49 81 101 l81 94 -39 0 c-36 -1 -43 -7 -143 -122 l-105 -121 -3 121 -3 122
-29 0 -30 0 0 -210z"/>
<path d="M6374 2528 l86 -112 0 -98 0 -98 30 0 30 0 0 99 0 99 80 103 c44 57
80 107 80 112 0 4 -15 7 -32 7 -29 -1 -40 -9 -92 -81 -33 -44 -62 -78 -66 -77
-4 2 -35 38 -69 81 -56 70 -64 77 -97 77 l-35 0 85 -112z"/>
<path d="M1193 1858 c-8 -11 -176 -368 -190 -405 -4 -9 4 -13 26 -13 27 0 33
5 47 40 l16 40 128 0 127 0 16 -40 c13 -35 20 -40 46 -40 17 0 31 3 31 8 -1 4
-45 99 -98 212 -76 161 -102 206 -118 208 -11 2 -25 -3 -31 -10z m78 -181 l46
-102 -48 -3 c-27 -2 -71 -2 -98 0 l-49 3 46 102 c26 56 49 102 52 102 3 0 26
-46 51 -102z"/>
<path d="M1400 1840 l0 -30 75 0 75 0 0 -185 0 -185 30 0 30 0 0 185 0 185 75
0 75 0 0 30 0 30 -180 0 -180 0 0 -30z"/>
<path d="M1815 1857 c-3 -7 -4 -102 -3 -212 l3 -200 165 0 165 0 0 25 0 25
-132 3 -133 3 0 69 0 70 121 0 120 0 -3 28 -3 27 -117 3 -118 3 0 54 0 54 128
3 127 3 0 25 0 25 -158 3 c-122 2 -159 0 -162 -11z"/>
<path d="M2210 1655 l0 -216 158 3 157 3 0 25 0 25 -127 3 -128 3 -2 182 -3
182 -27 3 -28 3 0 -216z"/>
<path d="M2590 1655 l0 -215 30 0 30 0 0 215 0 215 -30 0 -30 0 0 -215z"/>
<path d="M2740 1655 l0 -215 163 2 162 3 0 25 0 25 -132 3 -133 3 0 69 0 70
121 0 120 0 -3 28 -3 27 -117 3 -118 3 0 54 0 54 128 3 127 3 0 25 0 25 -157
3 -158 3 0 -216z"/>
<path d="M3130 1656 l0 -216 30 0 c30 0 30 1 30 55 l0 55 69 0 70 0 43 -55
c36 -47 48 -55 75 -55 18 0 33 3 33 8 -1 4 -21 32 -45 62 l-44 54 28 18 c61
39 79 155 34 217 -39 52 -77 65 -205 69 l-118 4 0 -216z m252 125 c28 -25 33
-36 33 -75 0 -36 -6 -51 -28 -73 -25 -25 -35 -28 -112 -32 l-85 -3 0 106 0
106 80 0 c74 0 82 -2 112 -29z"/>
</g>
</svg>
